<svg xmlns="http://www.w3.org/2000/svg" viewBox="0 0 64 64"><rect width="64" height="64" rx="8" fill="#c23b22"/><path d="M53.1 10V10.95L52.99 12.01H46.1H39.1V14.35V16.68H41.75Q44.3 16.68 44.46 16.52Q44.62 16.36 46.74 16.47H48.96V19.22Q48.96 21.87 48.75 22.78Q48.54 23.68 48.22 24.42Q47.8 25.27 47.8 25.53Q47.8 25.8 47.48 25.8Q47.06 25.8 46.53 26.12Q45.89 26.43 45.2 26.43Q44.51 26.43 44.51 26.12L44.4 25.9H40.8L37.2 25.8L36.56 26.12Q36.03 26.43 35.29 26.38Q34.54 26.33 34.54 26.12L34.44 25.8H30.73H26.91L26.38 26.12Q25.74 26.43 25.06 26.43Q24.37 26.43 24.37 26.12V25.8H20.55Q16.84 25.8 16.2 26.12Q15.57 26.43 14.82 26.43H14.19V21.45V16.47H16.31Q18.43 16.36 18.69 16.52Q18.96 16.68 21.61 16.57H24.26V14.35L24.37 12.01H17.58H10.9V11.06V10H32ZM18.75 18.69V20.07Q18.75 21.56 18.64 22.4Q18.43 23.36 18.32 23.57L18.75 23.78Q19.17 23.78 21.29 23.78L24.26 23.68V21.24L24.37 18.69H21.5ZM28.82 18.69V20.39Q28.82 21.98 28.61 22.83Q28.4 23.68 28.4 23.78Q28.4 23.78 31.47 23.78H34.44V21.24V18.69H31.68ZM39.1 18.69V20.28Q39.1 21.87 38.89 22.72Q38.68 23.57 38.68 23.68Q38.68 23.78 41.54 23.78L44.4 23.68V21.24V18.8L41.75 18.69ZM42.07 29.19H44.4V33.75Q44.4 38.41 44.25 39.32Q44.09 40.22 43.66 40.85Q43.45 41.49 42.92 42.02Q42.39 42.55 41.91 42.76Q41.44 42.97 40.69 43.08H39.85V37.35V31.63H31.36H22.88V35.13Q22.88 38.63 22.67 39.37Q22.46 40.32 22.25 40.85Q21.93 41.49 21.45 42.02Q20.97 42.55 20.44 42.76Q19.91 42.97 19.17 43.08H18.43V36.19V29.19H20.66Q22.88 29.19 22.88 29.4Q22.88 29.61 31.36 29.61Q39.85 29.61 39.85 29.4Q39.85 29.19 42.07 29.19ZM32.42 34.28 34.33 35.87V36.29Q34.23 36.93 33.8 37.88Q33.38 38.94 32.74 40.32Q32 41.7 31.47 42.44Q30.83 43.4 30.14 44.25Q29.46 45.09 28.4 46.15Q27.55 47 26.49 47.85Q25.53 48.59 24.37 49.44Q23.09 50.18 21.5 51.03Q19.91 51.88 18.32 52.41Q16.63 52.94 14.93 53.36Q13.02 53.89 12.39 53.95Q11.75 54 11.54 53.68Q11.33 53.36 11.43 53.36Q11.54 53.26 12.39 53.05Q13.23 52.83 14.51 52.3Q15.46 51.99 17.16 51.14Q18.75 50.29 19.81 49.55Q20.76 48.91 22.03 47.85Q23.2 46.9 24.15 45.73Q25.21 44.67 26.06 43.29Q27.02 41.91 27.65 40.53Q28.29 39.05 28.71 37.88Q29.14 36.61 29.46 35.13Q29.77 33.75 29.88 32.9Q30.09 32.37 30.2 32.37Q30.3 32.48 32.42 34.28ZM43.56 47.11Q44.93 47.85 45.68 48.38Q46.42 48.91 46.95 49.23L47.37 49.65L46.84 51.46Q46.31 53.36 46.31 53.58L46.21 54L44.83 52.73Q43.34 51.35 42.5 50.61Q41.54 49.87 40.38 49.12Q39.32 48.49 37.94 47.85Q36.35 47 34.76 46.47L32.95 45.84V45.31L32.85 44.88L34.76 44.99Q36.56 44.99 37.94 45.25Q39.32 45.52 40.8 46Q42.28 46.47 43.56 47.11ZM28.82 16.68H34.44V12.01H28.82Z" fill="#f5f0e6"/></svg>